<svg width="7" height="7" viewBox="0 0 7 7" fill="none" xmlns="http://www.w3.org/2000/svg">
<path d="M3.04871 0.147959C3.31712 -0.0493196 3.68289 -0.0493196 3.95129 0.147959L4.51941 0.565376C4.61848 0.638191 4.73363 0.685607 4.8547 0.704234L5.55153 0.810916C5.88089 0.861718 6.13828 1.11996 6.18908 1.44847L6.29577 2.1453C6.31439 2.26637 6.36181 2.38152 6.43462 2.48059L6.85204 3.04872C7.04932 3.31712 7.04932 3.68289 6.85204 3.95129L6.43462 4.51941C6.36181 4.61848 6.31439 4.73363 6.29577 4.8547L6.18908 5.55153C6.13828 5.88004 5.88089 6.13828 5.55153 6.18908L4.8547 6.29577C4.73363 6.3144 4.61848 6.36181 4.51941 6.43463L3.95129 6.85204C3.68289 7.04932 3.31712 7.04932 3.04871 6.85204L2.48059 6.43463C2.38152 6.36181 2.26637 6.3144 2.1453 6.29577L1.44847 6.18908C1.11996 6.13828 0.861717 5.88004 0.810916 5.55153L0.704234 4.8547C0.685607 4.73363 0.638191 4.61848 0.565376 4.51941L0.147959 3.95129C-0.0493196 3.68289 -0.0493196 3.31712 0.147959 3.04872L0.565376 2.48059C0.638191 2.38152 0.685607 2.26637 0.704234 2.1453L0.810916 1.44847C0.861717 1.11996 1.11996 0.861718 1.44847 0.810916L2.1453 0.704234C2.26637 0.685607 2.38152 0.638191 2.48059 0.565376L3.04871 0.147959Z" fill="#429698"/>
</svg>
