<svg width="21" height="22" viewBox="0 0 21 22" fill="none" xmlns="http://www.w3.org/2000/svg">
<g clip-path="url(#clip0_493_2696)">
<path d="M20.9889 11.2058C20.9889 10.3045 20.9174 9.64674 20.7628 8.96466H10.7091V13.0328H16.6104C16.4915 14.0438 15.849 15.5663 14.4212 16.5894L14.4012 16.7256L17.58 19.2466L17.8002 19.2691C19.8228 17.3568 20.9889 14.5432 20.9889 11.2058Z" fill="#2D6061"/>
<path d="M10.7092 21.9244C13.6004 21.9244 16.0275 20.95 17.8003 19.2691L14.4213 16.5894C13.5171 17.235 12.3035 17.6857 10.7092 17.6857C7.87755 17.6857 5.4742 15.7734 4.61747 13.1303L4.49189 13.1412L1.18654 15.76L1.14331 15.883C2.90418 19.464 6.52113 21.9244 10.7092 21.9244Z" fill="#2D6061"/>
<path d="M4.61742 13.1303C4.39137 12.4482 4.26054 11.7174 4.26054 10.9622C4.26054 10.207 4.39137 9.47621 4.60553 8.79413L4.59954 8.64886L1.25277 5.98804L1.14327 6.04136C0.417528 7.52737 0.00109863 9.19609 0.00109863 10.9622C0.00109863 12.7284 0.417528 14.397 1.14327 15.883L4.61742 13.1303Z" fill="#2D6061"/>
<path d="M10.7092 4.23869C12.7199 4.23869 14.0763 5.12785 14.8496 5.87089L17.8717 2.85018C16.0157 1.08405 13.6004 0 10.7092 0C6.52113 0 2.90418 2.46039 1.14331 6.04135L4.60557 8.79412C5.4742 6.15102 7.87755 4.23869 10.7092 4.23869Z" fill="#2D6061"/>
</g>
<defs>
<clipPath id="clip0_493_2696">
<rect width="21" height="22" rx="10.5" fill="white"/>
</clipPath>
</defs>
</svg>
