<svg width="68" height="85" viewBox="0 0 68 85" fill="none" xmlns="http://www.w3.org/2000/svg">
<path d="M34 0C24.9857 0.0101242 16.3436 3.5956 9.96955 9.96981C3.59551 16.344 0.010124 24.9864 0 34.0009C0 47.835 10.0428 59.323 20.6805 71.4826C24.0465 75.3332 27.5315 79.3156 30.634 83.3447C31.031 83.8597 31.5409 84.2768 32.1245 84.5638C32.7081 84.8508 33.3497 85 34 85C34.6503 85 35.2919 84.8508 35.8755 84.5638C36.4591 84.2768 36.969 83.8597 37.366 83.3447C40.4685 79.3156 43.9535 75.3332 47.3195 71.4826C57.9572 59.323 68 47.835 68 34.0009C67.9899 24.9864 64.4045 16.344 58.0304 9.96981C51.6564 3.5956 43.0143 0.0101242 34 0ZM34 46.7512C31.4783 46.7512 29.0132 46.0034 26.9165 44.6024C24.8198 43.2014 23.1856 41.21 22.2205 38.8802C21.2555 36.5504 21.003 33.9867 21.495 31.5134C21.9869 29.0401 23.2013 26.7682 24.9844 24.985C26.7675 23.2019 29.0393 21.9875 31.5126 21.4955C33.9859 21.0036 36.5495 21.2561 38.8792 22.2211C41.209 23.1862 43.2002 24.8204 44.6012 26.9172C46.0022 29.014 46.75 31.4791 46.75 34.0009C46.75 37.3825 45.4067 40.6256 43.0156 43.0167C40.6245 45.4079 37.3815 46.7512 34 46.7512Z" fill="white"/>
</svg>
