<svg width="28" height="26" viewBox="0 0 28 26" fill="none" xmlns="http://www.w3.org/2000/svg">
<path fill-rule="evenodd" clip-rule="evenodd" d="M23.2594 14.61V26.0056H15.1523V21.638C15.1538 21.1608 15.0638 20.6879 14.8876 20.2467C14.7114 19.8055 14.4523 19.4046 14.1255 19.0671C13.7986 18.7297 13.4103 18.4622 12.9829 18.2803C12.5555 18.0984 12.0975 18.0055 11.6352 18.007C11.1729 18.0055 10.7149 18.0984 10.2876 18.2803C9.86018 18.4622 9.47188 18.7297 9.14499 19.0671C8.81811 19.4046 8.5591 19.8055 8.38286 20.2467C8.20663 20.6879 8.11665 21.1608 8.11811 21.638V26.0056H0V14.61H23.2594Z" fill="white"/>
<path fill-rule="evenodd" clip-rule="evenodd" d="M26.5831 3.81958V26.0056H23.7185V3.81958H26.5831Z" fill="white"/>
<path fill-rule="evenodd" clip-rule="evenodd" d="M23.3035 3.07727C23.3714 2.34189 23.58 1.62774 23.9174 0.976278C24.1717 0.51954 24.592 0 25.1506 0C25.7036 0 26.1294 0.51383 26.3838 0.976278C26.7322 1.60429 26.9147 2.36362 26.9921 3.07727L27.0253 3.3399H23.2759L23.3035 3.07727Z" fill="white"/>
<path fill-rule="evenodd" clip-rule="evenodd" d="M2.9089 13.8563C3.26782 12.0784 4.24567 10.4981 5.65734 9.4145C7.37735 8.07774 9.477 7.36522 11.6298 7.38772C13.7644 7.38772 15.91 8.0557 17.6022 9.4145C19.0139 10.4981 19.9918 12.0784 20.3507 13.8563L20.406 14.136H2.85913L2.9089 13.8563Z" fill="white"/>
<path fill-rule="evenodd" clip-rule="evenodd" d="M12.3155 5.77207V6.93675L12.0777 6.92533C11.7792 6.91285 11.4803 6.91285 11.1818 6.92533L10.944 6.93675V5.76065C10.2975 5.61051 9.73022 5.21261 9.35688 4.64735C9.17466 4.37041 9.05561 4.05444 9.00868 3.72317C8.96174 3.39191 8.98815 3.05397 9.08591 2.73476C9.14807 2.56544 9.27071 2.42714 9.42861 2.34831C9.58651 2.26949 9.76766 2.25612 9.93482 2.31096C10.102 2.3658 10.2424 2.48468 10.3273 2.64316C10.4121 2.80163 10.4349 2.98764 10.391 3.16295L10.3744 3.22575C10.3246 3.45412 10.3744 3.67678 10.4961 3.86518C10.6854 4.14406 10.9735 4.3348 11.2979 4.39614C11.6548 4.48122 12.0291 4.43896 12.3597 4.27625C12.4923 4.21514 12.6116 4.12701 12.7105 4.01713C12.8093 3.90725 12.8856 3.77789 12.9348 3.63681C12.997 3.46749 13.1196 3.3292 13.2775 3.25037C13.4354 3.17154 13.6166 3.15818 13.7837 3.21302C13.9509 3.26786 14.0913 3.38674 14.1762 3.54521C14.261 3.70369 14.2838 3.8897 14.2399 4.06501C14.1352 4.38802 13.968 4.68567 13.7484 4.93987C13.5288 5.19407 13.2614 5.39951 12.9625 5.5437C12.7563 5.64596 12.5391 5.72262 12.3155 5.77207Z" fill="white"/>
</svg>
