<svg width="27" height="26" viewBox="0 0 27 26" fill="none" xmlns="http://www.w3.org/2000/svg">
<path d="M13.5 0C6.04462 0 0 5.81653 0 12.9906C0 20.1646 6.04462 25.9811 13.5 25.9811C20.9554 25.9811 27 20.1646 27 12.9906C27 5.81653 20.9554 0 13.5 0ZM20.1217 7.73751L18.1609 10.7611L16.8531 12.7778C16.8581 12.8493 16.875 12.9175 16.875 12.9906C16.875 14.7849 15.3647 16.2382 13.5 16.2382C13.4241 16.2382 13.3532 16.222 13.2789 16.2171L11.1814 17.4756L8.04094 19.3624C7.87887 19.4592 7.68767 19.5006 7.49817 19.4799C7.30867 19.4593 7.1319 19.3779 6.99638 19.2488C6.86126 19.1192 6.77596 18.9493 6.75449 18.7669C6.73303 18.5846 6.77667 18.4006 6.87825 18.2453L8.83912 15.2217L10.1469 13.2049C10.1419 13.1318 10.125 13.0636 10.125 12.9906C10.125 11.1962 11.6353 9.74292 13.5 9.74292C13.5759 9.74292 13.6468 9.75916 13.7211 9.76403L15.8186 8.50557L18.9591 6.61869C19.1209 6.52173 19.312 6.48034 19.5014 6.50128C19.6908 6.52221 19.8672 6.60424 20.0019 6.73398C20.2821 7.00029 20.331 7.41599 20.1217 7.73751ZM11.8125 12.9906C11.8125 13.2038 11.8561 13.415 11.941 13.612C12.0258 13.809 12.1501 13.988 12.3068 14.1388C12.4635 14.2896 12.6495 14.4092 12.8542 14.4908C13.059 14.5724 13.2784 14.6144 13.5 14.6144C13.9476 14.6144 14.3768 14.4433 14.6932 14.1388C14.8499 13.988 14.9742 13.809 15.059 13.612C15.1439 13.415 15.1875 13.2038 15.1875 12.9906C15.1875 12.5599 15.0097 12.1469 14.6932 11.8424C14.3768 11.5378 13.9476 11.3667 13.5 11.3667C13.0524 11.3667 12.6232 11.5378 12.3068 11.8424C11.9903 12.1469 11.8125 12.5599 11.8125 12.9906Z" fill="white"/>
</svg>
