<svg width="37" height="26" viewBox="0 0 37 26" fill="none" xmlns="http://www.w3.org/2000/svg">
<path fill-rule="evenodd" clip-rule="evenodd" d="M18.101 20.1032L18.4732 20.0659V20.1032C18.9641 20.1179 19.4489 20.2113 19.9079 20.3793L20.7144 20.6928L18.1087 21.6629L15.7357 20.7748L16.4802 20.4465C16.9895 20.232 17.5452 20.1154 18.101 20.1032Z" fill="white"/>
<path fill-rule="evenodd" clip-rule="evenodd" d="M36.1545 23.7923V23.867L36.108 25.6878L22.5446 20.6582L29.6403 17.9419L29.7954 18.1359C30.3228 18.8001 30.9199 19.4269 31.5791 19.9567C32.5639 20.7477 33.7349 21.2999 34.9757 21.576C35.2849 21.66 35.5605 21.8316 35.7667 22.0685C36.1855 22.5461 36.2553 23.173 36.1622 23.77V23.7923H36.1545Z" fill="white"/>
<path fill-rule="evenodd" clip-rule="evenodd" d="M0.0629843 23.7925V23.7626C-0.030075 23.1656 0.0319651 22.5388 0.450732 22.0612C0.656952 21.8243 0.932611 21.6526 1.24174 21.5687C2.49028 21.2926 3.66128 20.7479 4.64616 19.9494C5.30533 19.4196 5.90246 18.7927 6.42204 18.1286L6.57714 17.9346L13.6807 20.6509L12.8586 20.9493C8.75628 22.4717 4.66167 24.0089 0.567056 25.5387L0.11727 25.7103L0.0629843 23.8596V23.7925Z" fill="white"/>
<path fill-rule="evenodd" clip-rule="evenodd" d="M18.6206 19.0515C18.8519 18.2761 19.2719 17.565 19.8459 16.977C20.9859 15.8054 22.6377 15.1413 24.2197 14.7309C25.0572 14.507 25.9102 14.3428 26.771 14.2085L29.02 13.8727C29.5085 13.7981 30.0436 13.7234 30.5089 13.5742C30.5865 13.5443 30.951 13.4175 30.9742 13.3205L30.982 13.313V0.276367L33.9676 2.31358L33.8358 15.8204L21.3038 20.4694L21.1487 20.335C20.8505 20.0878 20.5092 19.8932 20.1406 19.7604C19.744 19.6151 19.3295 19.5198 18.9075 19.4769L18.5043 19.4321L18.6206 19.0515Z" fill="white"/>
<path fill-rule="evenodd" clip-rule="evenodd" d="M17.3178 19.5217C16.9803 19.5764 16.6501 19.6665 16.3329 19.7903C15.9586 19.9358 15.6164 20.1485 15.3248 20.4171L15.1697 20.5664L2.26545 15.783L2.25769 2.31358L5.24334 0.276367V13.3205C5.24334 13.5145 5.42171 13.6488 5.61558 13.6488C6.46146 13.6811 7.30518 13.7533 8.14369 13.8652C9.65591 14.0667 11.1914 14.3876 12.6183 14.895C14.7121 15.6413 16.9068 16.9098 17.5815 19.0963L17.6978 19.4545L17.3178 19.5217Z" fill="white"/>
<path fill-rule="evenodd" clip-rule="evenodd" d="M17.7753 6.66384V17.7081L17.1549 16.9991C14.8129 14.2829 9.73339 13.268 6.24367 13.0217L5.93347 12.9993V0L6.30571 0.0298488C9.52401 0.320879 13.8047 1.11188 16.2165 3.40281C16.7904 3.94756 17.279 4.59678 17.5504 5.33555C17.6667 5.63404 17.7675 6.00716 17.7675 6.32803L17.7753 6.66384Z" fill="white"/>
<path fill-rule="evenodd" clip-rule="evenodd" d="M18.45 6.3952V6.3355C18.45 6.02208 18.5585 5.6415 18.6671 5.35047C18.9523 4.61803 19.4025 3.95544 19.9854 3.41027C22.3972 1.11935 26.6935 0.320879 29.9195 0.0298488L30.2918 0V12.9993L29.9816 13.0217C26.4918 13.268 21.4201 14.2903 19.0548 16.9991L18.45 17.6931V6.3952Z" fill="white"/>
</svg>
