<svg width="28" height="26" viewBox="0 0 28 26" fill="none" xmlns="http://www.w3.org/2000/svg">
<path d="M24.0134 14.2636C24.069 13.8479 24.1106 13.4322 24.1106 12.9906C24.1106 12.5489 24.069 12.1332 24.0134 11.7175L26.9418 9.57405C27.2055 9.37919 27.2749 9.02844 27.1084 8.74265L24.3326 4.24792C24.1661 3.96212 23.7914 3.8582 23.486 3.96212L20.0302 5.26118C19.3086 4.74156 18.5313 4.31287 17.6847 3.9881L17.1574 0.545604C17.1157 0.23383 16.8243 0 16.4773 0H10.9258C10.5788 0 10.2874 0.23383 10.2458 0.545604L9.71836 3.9881C8.87176 4.31287 8.09455 4.75455 7.37286 5.26118L3.91705 3.96212C3.59784 3.84521 3.237 3.96212 3.07045 4.24792L0.29471 8.74265C0.114286 9.02844 0.197559 9.37919 0.461254 9.57405L3.38966 11.7175C3.33415 12.1332 3.29251 12.5619 3.29251 12.9906C3.29251 13.4193 3.33415 13.8479 3.38966 14.2636L0.461254 16.4071C0.197559 16.6019 0.128165 16.9527 0.29471 17.2385L3.07045 21.7332C3.237 22.019 3.61172 22.1229 3.91705 22.019L7.37286 20.72C8.09455 21.2396 8.87176 21.6683 9.71836 21.993L10.2458 25.4355C10.2874 25.7473 10.5788 25.9811 10.9258 25.9811H16.4773C16.8243 25.9811 17.1157 25.7473 17.1574 25.4355L17.6847 21.993C18.5313 21.6683 19.3086 21.2266 20.0302 20.72L23.486 22.019C23.8053 22.1359 24.1661 22.019 24.3326 21.7332L27.1084 17.2385C27.2749 16.9527 27.2055 16.6019 26.9418 16.4071L24.0134 14.2636ZM13.7016 17.5373C11.023 17.5373 8.844 15.4977 8.844 12.9906C8.844 10.4834 11.023 8.44387 13.7016 8.44387C16.3801 8.44387 18.5591 10.4834 18.5591 12.9906C18.5591 15.4977 16.3801 17.5373 13.7016 17.5373Z" fill="white"/>
</svg>
