<svg width="280" height="280" viewBox="0 0 280 280" fill="none" xmlns="http://www.w3.org/2000/svg">
<g clip-path="url(#clip0_640_3266)">
<path d="M139.997 248C199.644 248 247.997 199.646 247.997 140C247.997 80.353 199.644 31.9999 139.997 31.9999C80.3502 31.9999 31.9971 80.353 31.9971 140C31.9971 199.646 80.3502 248 139.997 248Z" fill="url(#paint0_radial_640_3266)"/>
<g clip-path="url(#clip1_640_3266)">
<mask id="mask0_640_3266" style="mask-type:luminance" maskUnits="userSpaceOnUse" x="52" y="54" width="177" height="177">
<path d="M118.404 89.5306C119.25 90.2858 120.627 89.7382 120.724 88.6098C121.63 76.9861 125.578 67.8188 140.842 54.6791C141.344 54.2592 142.098 54.2723 142.572 54.7093C159.046 69.9489 162.134 79.4728 162.135 92.84C162.147 92.9052 162.185 92.9708 162.249 92.9849C162.301 93.0118 162.353 92.9867 162.393 92.9484C172.16 83.7398 180.989 79.0615 203.01 80.7189C203.673 80.7695 204.185 81.298 204.212 81.961C205.006 102.084 201.347 111.153 193.623 119.643C192.866 120.488 193.402 121.861 194.533 121.959C205.956 122.976 215.061 127.136 228.054 142.666C228.462 143.154 228.449 143.881 228.024 144.354C214.816 159.05 205.875 163.414 195.055 164.343C193.96 164.44 193.391 165.742 194.079 166.599C200.829 175.122 203.878 184.632 201.816 204.315C201.753 204.938 201.237 205.435 200.611 205.476C180.229 206.874 170.718 203.669 162.291 196.494C161.457 195.778 160.107 196.313 159.997 197.402C158.868 208.372 154.638 217.314 139.996 229.906C139.507 230.326 138.752 230.313 138.265 229.875C123.291 216.013 119.376 206.89 118.797 195.293C118.739 194.175 117.382 193.579 116.511 194.292C107.754 201.556 98.361 204.991 78.2945 203.198C77.6578 203.135 77.1464 202.607 77.1054 201.97C76.0249 181.842 79.4036 172.469 86.7098 164.049C87.4404 163.205 86.8914 161.844 85.7867 161.747C74.3884 160.755 65.2822 156.712 52.3193 141.703C51.8983 141.215 51.9114 140.462 52.3494 139.976C66.5174 124.725 75.7596 120.977 87.7171 120.51C88.8633 120.465 89.4599 119.098 88.7201 118.228C81.1687 109.38 77.4774 100.118 78.9595 80.0865C79.0099 79.4378 79.5527 78.9147 80.204 78.8871C100.549 78.1251 109.805 81.794 118.404 89.5306Z" fill="white"/>
</mask>
<g mask="url(#mask0_640_3266)">
<path d="M124.611 88.9245C125.031 83.5148 126.14 78.8836 128.814 74.1108C131.515 69.2605 135.953 64.0379 143.393 57.6336L138.303 51.725C130.466 58.4731 125.3 64.3845 121.994 70.3154C118.635 76.3104 117.311 82.094 116.825 88.3079L124.611 88.9245ZM143.393 57.6336C142.389 58.4994 140.893 58.4733 139.919 57.5729L145.225 51.8588C143.291 50.0583 140.298 50.0061 138.303 51.725L143.393 57.6336ZM139.919 57.5729C147.977 65.0142 152.47 70.8214 155.007 76.1528C157.505 81.4056 158.236 86.4976 158.23 92.8499L166.04 92.8433C166.045 85.8285 165.232 79.475 162.068 72.8076C158.929 66.2186 153.655 59.6443 145.225 51.8588L139.919 57.5729ZM165.077 95.7883C169.762 91.3624 173.942 88.3047 179.376 86.438C184.863 84.5592 191.997 83.7873 202.721 84.5981L203.313 76.8271C192.016 75.9804 183.711 76.7188 176.85 79.0672C169.922 81.4405 164.791 85.326 159.709 90.1217L165.077 95.7883ZM202.721 84.5981C201.395 84.497 200.36 83.4397 200.318 82.1139L208.12 81.8084C208.01 79.1694 205.938 77.0288 203.313 76.8271L202.721 84.5981ZM200.318 82.1139C200.706 91.9415 199.988 98.7619 198.373 104.034C196.799 109.203 194.297 113.108 190.727 117.034L196.506 122.266C200.673 117.688 203.856 112.807 205.844 106.295C207.805 99.8727 208.526 92.091 208.12 81.8084L200.318 82.1139ZM194.179 125.837C199.468 126.319 204.017 127.476 208.733 130.235C213.539 133.033 218.731 137.593 225.055 145.16L231.052 140.159C224.396 132.21 218.54 126.924 212.677 123.509C206.737 120.041 201.021 118.629 194.874 118.08L194.179 125.837ZM225.055 145.16C224.227 144.158 224.252 142.717 225.128 141.758L230.933 146.964C232.659 145.046 232.71 142.137 231.052 140.159L225.055 145.16ZM225.128 141.758C218.65 148.945 213.431 153.388 208.684 156.15C204.002 158.861 199.634 160.045 194.72 160.466L195.378 168.232C201.296 167.725 206.802 166.249 212.614 162.882C218.335 159.553 224.177 154.459 230.933 146.964L225.128 141.758ZM191.004 169.013C194.086 172.899 196.242 176.886 197.452 182.142C198.661 187.477 198.945 194.302 197.931 203.91L205.701 204.721C206.749 194.646 206.546 186.887 205.058 180.405C203.559 173.844 200.809 168.821 197.141 164.184L191.004 169.013ZM197.931 203.91C198.058 202.639 199.077 201.682 200.341 201.588L200.882 209.365C203.384 209.188 205.436 207.223 205.701 204.721L197.931 203.91ZM200.341 201.588C190.358 202.271 183.35 201.798 177.934 200.417C172.62 199.064 168.651 196.787 164.829 193.524L159.766 199.463C164.358 203.376 169.37 206.282 176.005 207.97C182.55 209.643 190.469 210.08 200.882 209.365L200.341 201.588ZM156.112 197.009C155.594 202.054 154.385 206.462 151.688 211.079C148.964 215.76 144.58 220.814 137.457 226.952L142.548 232.86C150.054 226.392 155.113 220.687 158.44 215.003C161.795 209.255 163.271 203.721 163.882 197.808L156.112 197.009ZM137.457 226.952C138.462 226.086 139.945 226.112 140.919 227.012L135.612 232.726C137.546 234.527 140.552 234.579 142.548 232.86L137.457 226.952ZM140.919 227.012C133.604 220.246 129.221 214.831 126.574 209.9C123.977 205.048 122.964 200.445 122.693 195.101L114.889 195.484C115.209 201.725 116.437 207.489 119.689 213.573C122.903 219.566 127.965 225.656 135.612 232.726L140.919 227.012ZM114.025 191.299C109.983 194.645 105.946 197.004 100.663 198.367C95.3024 199.754 88.4219 200.193 78.6356 199.32L77.9405 207.077C88.2206 207.996 96.0763 207.614 102.627 205.91C109.257 204.194 114.294 201.203 119.01 197.297L114.025 191.299ZM78.6356 199.32C79.9353 199.434 80.9326 200.465 81.014 201.765L73.2097 202.187C73.3472 204.749 75.3671 206.85 77.9405 207.077L78.6356 199.32ZM81.014 201.765C80.4829 191.922 81.0592 185.008 82.5324 179.656C83.978 174.394 86.3248 170.447 89.6592 166.595L83.7606 161.491C79.7887 166.072 76.7993 171.034 74.9928 177.589C73.2266 184.066 72.6603 191.902 73.2097 202.187L81.014 201.765ZM86.1278 157.869C80.838 157.413 76.2891 156.268 71.5588 153.587C66.7768 150.88 61.595 146.476 55.2795 139.157L49.3591 144.249C56.0066 151.939 61.8659 157.055 67.7177 160.366C73.6338 163.717 79.324 165.102 85.4457 165.625L86.1278 157.869ZM55.2795 139.157C56.1469 140.172 56.1211 141.652 55.219 142.624L49.493 137.328C47.689 139.258 47.6369 142.245 49.3591 144.249L55.2795 139.157ZM55.219 142.624C62.1438 135.171 67.6485 130.773 72.6667 128.145C77.6187 125.582 82.3217 124.612 87.8705 124.397L87.5769 116.61C81.1683 116.862 75.2648 118.006 69.0645 121.236C62.93 124.429 56.7232 129.53 49.493 137.328L55.219 142.624ZM91.6929 115.708C88.1851 111.594 85.7045 107.549 84.2083 102.288C82.7002 96.9615 82.1295 90.1315 82.8595 80.3755L75.0726 79.7979C74.3075 90.073 74.8479 97.8897 76.6995 104.417C78.563 111.01 81.7035 116.027 85.7472 120.761L91.6929 115.708ZM82.8595 80.3755C82.7581 81.7117 81.6859 82.7322 80.3573 82.787L80.0636 75.0006C77.4196 75.0973 75.2618 77.1641 75.0726 79.7979L82.8595 80.3755ZM80.3573 82.787C90.3085 82.4151 97.2208 83.1333 102.582 84.7467C107.851 86.3456 111.817 88.8571 115.789 92.4338L121.019 86.6404C116.38 82.4675 111.424 79.2762 104.833 77.2906C98.3333 75.3325 90.4578 74.6104 80.0636 75.0006L80.3573 82.787ZM89.6592 166.595C92.462 163.37 90.4428 158.243 86.1278 157.869L85.4457 165.625C83.3532 165.446 82.4189 163.039 83.7606 161.491L89.6592 166.595ZM122.693 195.101C122.469 190.771 117.353 188.526 114.025 191.299L119.01 197.297C117.398 198.62 114.996 197.578 114.889 195.484L122.693 195.101ZM164.829 193.524C161.609 190.792 156.551 192.769 156.112 197.009L163.882 197.808C163.664 199.856 161.292 200.763 159.766 199.463L164.829 193.524ZM190.727 117.034C187.807 120.243 189.838 125.462 194.179 125.837L194.874 118.08C196.966 118.26 197.926 120.719 196.506 122.266L190.727 117.034ZM161.104 96.7192C162.58 97.1737 164.085 96.7193 165.077 95.7883L159.709 90.1217C160.622 89.2543 162.009 88.8368 163.395 89.2637L161.104 96.7192ZM158.23 92.8499C158.24 94.4868 159.278 96.1547 161.104 96.7192L163.395 89.2637C165.091 89.787 166.04 91.3234 166.04 92.8433L158.23 92.8499ZM194.72 160.466C190.535 160.821 188.393 165.72 191.004 169.013L197.141 164.184C198.389 165.765 197.386 168.06 195.378 168.232L194.72 160.466ZM87.8705 124.397C92.2601 124.226 94.5504 119.044 91.6929 115.708L85.7472 120.761C84.3697 119.139 85.4538 116.69 87.5769 116.61L87.8705 124.397ZM116.825 88.3079C116.992 86.1934 119.469 85.2364 121.019 86.6404L115.789 92.4338C119.032 95.3353 124.262 93.2832 124.611 88.9245L116.825 88.3079Z" fill="#E8ECF4"/>
</g>
<path fill-rule="evenodd" clip-rule="evenodd" d="M99.2835 80.0588L102.773 65.9904C103.382 63.5443 106.107 62.3117 108.355 63.4621L125.264 72.1819C125.866 71.0866 126.559 69.9798 127.331 68.8611L110.151 60.0074C105.668 57.6937 100.191 60.1717 98.986 65.051L95.4005 79.4687C96.7647 79.6318 98.0504 79.8327 99.2835 80.0588ZM80.4477 103.798C80.0881 102.598 79.7815 101.333 79.5279 100.005L60.5256 106.049C55.726 107.576 53.6121 113.182 56.2163 117.495L63.5462 129.632C64.626 128.79 65.6787 128.027 66.7174 127.327L59.5522 115.492C58.2567 113.329 59.3137 110.526 61.7069 109.769L80.4477 103.798ZM70.6912 157.705C69.5806 157.117 68.4579 156.464 67.3235 155.719L58.0632 173.625C55.7449 178.098 58.228 183.552 63.13 184.768L77.3047 188.264C77.403 186.902 77.5525 185.605 77.7272 184.36L64.0583 180.988C61.6203 180.381 60.3723 177.647 61.5379 175.417L70.6912 157.705ZM101.632 202.277C100.416 202.596 99.1369 202.863 97.7931 203.077L104.198 223.15C105.741 227.941 111.358 230.05 115.679 227.451L128.669 219.629C127.812 218.577 127.021 217.539 126.294 216.515L113.659 224.122C111.505 225.415 108.697 224.36 107.925 221.959L101.632 202.277ZM155.415 212.712C154.787 213.806 154.094 214.9 153.323 216.019L171.91 225.608C176.393 227.909 181.87 225.444 183.075 220.551L186.813 205.499C185.435 205.414 184.135 205.304 182.888 205.142L179.289 219.612C178.679 222.058 175.954 223.291 173.706 222.14L155.415 212.712ZM201.522 181.842C201.79 183.067 202.005 184.356 202.167 185.722L221.536 179.553C226.348 178.027 228.462 172.42 225.858 168.108L217.575 154.411C216.521 155.292 215.493 156.095 214.48 156.833L222.509 170.124C223.818 172.274 222.761 175.077 220.354 175.846L201.522 181.842ZM211.692 127.279C212.762 127.944 213.832 128.674 214.939 129.496L223.998 111.977C226.316 107.504 223.833 102.05 218.944 100.835L203.641 97.0619C203.478 98.4105 203.277 99.6935 203.024 100.924L218.003 104.627C220.441 105.222 221.689 107.955 220.536 110.198L211.692 127.279ZM180.007 82.0074C181.222 81.6617 182.489 81.3687 183.82 81.1286L177.863 62.4648C176.333 57.6619 170.703 55.5521 166.382 58.151L153.143 66.1257C153.986 67.2033 154.738 68.2537 155.439 69.2902L168.402 61.4934C170.569 60.1875 173.378 61.2423 174.136 63.6437L180.007 82.0074Z" fill="#E9EDF5"/>
<path d="M210.776 142.028C210.776 141.167 211.119 140.341 211.729 139.732C212.339 139.123 213.167 138.781 214.03 138.781C214.893 138.781 215.72 139.123 216.33 139.732C216.941 140.341 217.283 141.167 217.283 142.028C217.283 142.89 216.941 143.716 216.33 144.325C215.72 144.934 214.893 145.276 214.03 145.276C213.167 145.276 212.339 144.934 211.729 144.325C211.119 143.716 210.776 142.89 210.776 142.028Z" fill="#E8ECF4"/>
<path d="M65.0117 142.028C65.0117 141.167 65.3545 140.341 65.9647 139.732C66.5749 139.123 67.4025 138.781 68.2654 138.781C69.1283 138.781 69.9559 139.123 70.5661 139.732C71.1763 140.341 71.5191 141.167 71.5191 142.028C71.5191 142.89 71.1763 143.716 70.5661 144.325C69.9559 144.934 69.1283 145.276 68.2654 145.276C67.4025 145.276 66.5749 144.934 65.9647 144.325C65.3545 143.716 65.0117 142.89 65.0117 142.028Z" fill="#E8ECF4"/>
<path d="M134.211 89.9577C138.336 86.9314 143.959 86.9314 148.084 89.9577L156.817 96.361C158.34 97.4781 160.11 98.2054 161.971 98.4912L172.682 100.128C177.745 100.907 181.701 104.869 182.482 109.908L184.122 120.598C184.408 122.455 185.137 124.221 186.257 125.741L192.673 134.456C195.705 138.574 195.705 144.185 192.673 148.302L186.257 157.017C185.137 158.537 184.408 160.303 184.122 162.161L182.482 172.85C181.701 177.89 177.745 181.851 172.682 182.631L161.971 184.267C160.11 184.553 158.34 185.28 156.817 186.397L148.084 192.801C143.959 195.827 138.336 195.827 134.211 192.801L125.478 186.397C123.955 185.28 122.185 184.553 120.324 184.267L109.613 182.631C104.563 181.851 100.594 177.89 99.813 172.85L98.1731 162.161C97.8868 160.303 97.158 158.537 96.0387 157.017L89.6225 148.302C86.59 144.185 86.59 138.574 89.6225 134.456L96.0387 125.741C97.158 124.221 97.8868 122.455 98.1731 120.598L99.813 109.908C100.594 104.869 104.563 100.907 109.613 100.128L120.324 98.4912C122.185 98.2054 123.955 97.4781 125.478 96.361L134.211 89.9577Z" fill="#2D6061"/>
<path fill-rule="evenodd" clip-rule="evenodd" d="M122.68 128.222L140.913 120.701C141.057 120.636 141.239 120.636 141.382 120.688L159.602 127.585C159.85 127.676 160.019 127.923 160.019 128.196V135.067C160.019 135.352 159.837 135.599 159.576 135.69L141.356 141.951C141.226 142.002 141.07 142.002 140.939 141.951L122.719 135.69C122.459 135.599 122.276 135.352 122.276 135.067V128.819C122.276 128.559 122.433 128.326 122.68 128.222ZM122.276 142.288V153.913C122.276 154.186 122.446 154.432 122.693 154.523L140.913 161.42C141.07 161.485 141.226 161.485 141.382 161.42L159.602 154.523C159.85 154.432 160.019 154.186 160.019 153.913V142.288C160.019 141.847 159.576 141.535 159.16 141.678L141.356 147.795C141.226 147.847 141.07 147.847 140.939 147.795L123.135 141.678C122.719 141.535 122.276 141.847 122.276 142.288ZM131.113 127.741L140.913 123.935C141.057 123.884 141.239 123.884 141.382 123.935L151.182 127.741C151.742 127.962 151.729 128.767 151.156 128.962L141.356 132.222C141.226 132.261 141.07 132.261 140.939 132.222L131.139 128.962C130.567 128.767 130.554 127.962 131.113 127.741Z" fill="white"/>
<path d="M126.766 149.809C123.929 149.068 122.446 146.315 122.289 141.561C122.276 141.301 122.602 141.21 122.732 141.418C123.903 143.301 124.801 145.276 126.832 145.276C128.862 145.276 129.695 143.457 130.918 141.457C131.061 141.236 131.387 141.327 131.374 141.587C131.218 146.328 129.721 149.068 126.897 149.809C126.858 149.822 126.806 149.822 126.766 149.809Z" fill="#429698"/>
<path d="M155.399 149.809C152.562 149.068 151.078 146.315 150.922 141.561C150.909 141.301 151.234 141.21 151.364 141.418C152.536 143.301 153.434 145.276 155.464 145.276C157.494 145.276 158.327 143.457 159.55 141.457C159.694 141.236 160.019 141.327 160.006 141.587C159.85 146.328 158.353 149.068 155.529 149.809C155.49 149.822 155.438 149.822 155.399 149.809Z" fill="#429698"/>
<path d="M135.877 152.406C133.039 151.666 131.556 148.912 131.4 144.159C131.387 143.899 131.712 143.808 131.842 144.029C133.013 145.899 133.911 147.873 135.942 147.873C137.972 147.873 138.805 146.055 140.028 144.055C140.171 143.834 140.497 143.925 140.484 144.185C140.328 148.925 138.831 151.666 136.007 152.406C135.968 152.419 135.916 152.419 135.877 152.406Z" fill="#429698"/>
<path d="M146.288 152.406C143.451 151.666 141.968 148.912 141.811 144.159C141.798 143.899 142.124 143.808 142.254 144.029C143.425 145.899 144.323 147.873 146.354 147.873C148.384 147.873 149.217 146.055 150.44 144.055C150.583 143.834 150.909 143.925 150.896 144.185C150.739 148.925 149.243 151.666 146.419 152.406C146.38 152.419 146.328 152.419 146.288 152.406Z" fill="#429698"/>
</g>
</g>
<path fill-rule="evenodd" clip-rule="evenodd" d="M139.888 1.00012C136.296 1.00012 132.392 17.5474 132.392 21.1323V80.3987L133.094 79.9311C137.012 77.3594 142.088 77.3594 146.005 79.9311L146.708 80.3987V21.1323C146.708 17.5474 143.48 1.00012 139.888 1.00012ZM146.708 200.854L146.005 201.322C142.088 203.893 137.012 203.893 133.094 201.322L132.392 200.854V207.517C132.392 211.466 135.593 214.661 139.55 214.661C143.506 214.661 146.708 211.466 146.708 207.517V200.854Z" fill="#37B899"/>
<defs>
<radialGradient id="paint0_radial_640_3266" cx="0" cy="0" r="1" gradientUnits="userSpaceOnUse" gradientTransform="translate(139.997 140) rotate(90) scale(108)">
<stop stop-color="#397778"/>
<stop offset="1" stop-color="#2D6061"/>
</radialGradient>
<clipPath id="clip0_640_3266">
<rect width="216" height="216" fill="white" transform="translate(31.9971 32)"/>
</clipPath>
<clipPath id="clip1_640_3266">
<rect width="177" height="176" fill="white" transform="translate(51.9971 55)"/>
</clipPath>
</defs>
</svg>
